<?xml version="1.0" standalone="no"?>
<!DOCTYPE svg PUBLIC "-//W3C//DTD SVG 20010904//EN"
 "http://www.w3.org/TR/2001/REC-SVG-20010904/DTD/svg10.dtd">
<svg version="1.0" xmlns="http://www.w3.org/2000/svg"
 width="320.000000pt" height="320.000000pt" viewBox="0 0 320.000000 320.000000"
 preserveAspectRatio="xMidYMid meet">
<metadata>
Created by potrace 1.14, written by Peter Selinger 2001-2017
</metadata>
<g transform="translate(0.000000,320.000000) scale(0.100000,-0.100000)"
fill="#000000" stroke="none">
<path d="M0 1600 l0 -1600 670 0 c369 0 670 2 670 6 0 3 -13 36 -29 74 -16 37
-46 124 -66 192 -70 236 -127 398 -139 398 -6 0 -61 -45 -121 -101 -93 -85
-126 -108 -213 -150 -114 -54 -175 -63 -237 -33 -46 21 -63 51 -81 141 -20 93
-14 144 25 221 61 121 242 337 374 449 l90 75 2 196 c2 171 8 238 30 339 4 18
-4 25 -48 46 -137 62 -208 189 -153 272 20 30 119 80 179 91 l41 6 -54 28
c-69 35 -99 67 -107 113 -5 31 -1 40 25 67 32 32 69 38 116 20 21 -7 35 -5 66
11 48 25 95 20 138 -16 15 -13 33 -21 38 -17 6 4 16 37 22 74 14 91 37 120
129 164 93 45 193 72 299 80 77 6 87 5 210 -36 179 -60 210 -75 272 -134 77
-72 223 -241 264 -306 20 -30 65 -114 101 -186 36 -72 77 -145 92 -162 37 -44
49 -90 30 -119 -26 -39 -72 -56 -137 -50 -72 6 -131 34 -222 106 -39 32 -102
78 -141 103 -38 25 -101 73 -138 107 -37 33 -72 61 -76 61 -5 0 -21 -24 -37
-54 l-28 -54 51 -103 c28 -57 75 -167 103 -244 54 -147 87 -215 103 -215 25 0
206 -95 332 -175 323 -203 415 -297 415 -425 0 -167 -205 -209 -464 -95 -31
14 -56 23 -56 21 0 -1 9 -29 21 -62 11 -32 36 -124 55 -204 57 -241 75 -301
114 -390 21 -47 41 -95 45 -107 l6 -23 310 0 309 0 0 1600 0 1600 -1600 0
-1600 0 0 -1600z"/>
<path d="M1615 2713 c-115 -24 -171 -42 -235 -73 -83 -42 -104 -68 -115 -143
-6 -40 -5 -46 8 -41 8 3 18 20 21 39 8 43 51 85 87 85 15 0 31 -4 34 -10 12
-20 54 -10 83 20 24 23 39 30 70 30 62 0 77 -25 76 -124 -1 -44 -7 -93 -13
-108 -6 -16 -9 -28 -7 -28 2 0 24 9 49 20 64 29 188 32 244 6 55 -24 70 -59
54 -122 -7 -26 -19 -61 -28 -78 -12 -23 -13 -31 -3 -34 6 -2 46 -35 88 -72 43
-37 109 -88 147 -113 39 -26 109 -75 157 -111 86 -63 122 -78 186 -77 33 1 86
23 96 40 9 14 -11 59 -40 94 -14 16 -52 86 -85 154 -92 192 -144 265 -328 456
-78 81 -106 96 -276 154 -126 42 -198 52 -270 36z"/>
<path d="M1354 2542 c-13 -8 -34 -46 -34 -60 0 -21 36 1 57 34 20 30 20 34 5
34 -9 0 -22 -4 -28 -8z"/>
<path d="M1536 2288 c-3 -13 -7 -50 -10 -83 -15 -177 -55 -281 -140 -364 -49
-48 -89 -56 -142 -28 -61 32 -163 161 -179 230 -8 31 -35 37 -35 7 0 -66 123
-225 205 -266 72 -35 106 -28 170 34 96 91 140 208 159 425 6 56 4 67 -9 67
-8 0 -17 -10 -19 -22z"/>
<path d="M1613 1815 c-60 -26 -71 -88 -22 -129 74 -62 187 -8 165 79 -12 47
-87 73 -143 50z m-6 -92 c-4 -17 -4 -17 -12 0 -4 9 -4 25 0 35 8 16 8 16 12 0
3 -10 3 -26 0 -35z"/>
<path d="M1360 1672 c-50 -19 -63 -49 -19 -44 23 3 26 -2 37 -49 12 -50 11
-54 -13 -79 -14 -14 -25 -31 -25 -38 0 -23 29 -12 51 19 21 30 23 31 93 27 58
-2 71 0 71 12 0 11 -18 17 -65 23 -36 4 -68 11 -71 15 -3 4 -11 26 -16 48 -10
39 -9 43 14 53 13 6 21 16 18 21 -8 13 -22 12 -75 -8z"/>
<path d="M1088 1665 c-35 -19 -53 -73 -37 -108 22 -49 98 -52 147 -7 46 43 12
130 -51 130 -18 -1 -44 -7 -59 -15z m96 -48 c7 -18 6 -31 0 -37 -7 -7 -14 4
-21 30 -12 47 5 52 21 7z"/>
<path d="M1637 785 c-33 -7 -70 -19 -84 -26 -26 -14 -70 -74 -107 -148 -57
-111 -77 -347 -43 -491 9 -41 19 -85 22 -98 3 -12 12 -22 21 -22 17 0 15 19
-17 160 -23 97 -19 202 11 331 19 82 41 131 89 196 55 76 181 93 316 43 51
-19 76 -39 170 -134 127 -127 202 -243 300 -466 34 -76 63 -130 71 -130 20 0
18 6 -25 107 -124 284 -238 453 -398 587 -95 79 -221 114 -326 91z"/>
</g>
</svg>
